<?xml version="1.0" encoding="UTF-8"?>
<svg id="Camada_2" data-name="Camada 2" xmlns="http://www.w3.org/2000/svg" viewBox="0 0 579.23 394.79">
  <defs>
    <style>
      .cls-1 {
        fill: #1d1d1b;
        stroke-width: 0px;
      }
    </style>
  </defs>
  <g id="Camada_1-2" data-name="Camada 1">
    <g>
      <rect class="cls-1" x="279.06" y="49.11" width="21.11" height="579.23" transform="translate(-49.11 628.34) rotate(-90)"/>
      <g>
        <rect class="cls-1" x="42.08" y="329.69" width="21.11" height="63.56" transform="translate(-143.79 53.5) rotate(-24.24)"/>
        <rect class="cls-1" x="525.44" y="329.69" width="21.11" height="63.56" transform="translate(876.27 911.17) rotate(-155.76)"/>
      </g>
    </g>
    <g>
      <g>
        <path class="cls-1" d="m185.53,127.63c0-14.28,9.81-24.89,24.16-24.89,5.2,0,9.88,1.34,13.34,3.74,4.94,3.4,7.81,8.74,8.41,14.81h-13.95c-.33-3.73-3.47-7.07-8.01-7.07-6.61,0-9.81,5.6-9.81,13.41,0,7.81,3.74,13.41,9.94,13.41,4.87,0,7.81-3.21,8.27-7.48h14.08c-.4,5.27-2.8,9.94-6.2,13.21-4.07,3.93-9.14,5.67-16.08,5.67-14.54,0-24.16-10.55-24.16-24.82Z"/>
        <path class="cls-1" d="m248.21,103.61h14.21s17.68,47.71,17.68,47.71h-14.82s-2.34-7.01-2.34-7.01h-16.15s-2.34,7.01-2.34,7.01h-13.88s17.61-47.71,17.61-47.71Zm1.73,31.09h9.88s-3-9.34-3-9.34c-.73-2.34-1.8-6.14-1.8-6.14h-.14s-1,3.8-1.8,6.14l-3.14,9.34Z"/>
        <path class="cls-1" d="m282.73,103.61h13.95s15.61,26.82,15.61,26.82h.13v-26.82s13.48,0,13.48,0v47.71s-14.41,0-14.41,0l-15.15-27.02h-.13v27.02s-13.48,0-13.48,0v-47.71Z"/>
        <path class="cls-1" d="m329.8,103.61h41.1s0,11.88,0,11.88h-13.68s0,35.83,0,35.83h-13.95s0-35.83,0-35.83h-13.48s0-11.88,0-11.88Z"/>
        <path class="cls-1" d="m374.8,103.61h13.95s0,47.71,0,47.71h-13.95s0-47.71,0-47.71Z"/>
        <path class="cls-1" d="m394.49,103.61h13.95s15.61,26.82,15.61,26.82h.13v-26.82s13.48,0,13.48,0v47.71s-14.41,0-14.41,0l-15.15-27.02h-.13v27.02s-13.48,0-13.48,0v-47.71Z"/>
        <path class="cls-1" d="m443.43,103.61h13.95s0,17.48,0,17.48h14.68s0-17.48,0-17.48h13.95s0,47.71,0,47.71h-13.95s0-18.68,0-18.68h-14.68s0,18.68,0,18.68h-13.95s0-47.71,0-47.71Z"/>
        <path class="cls-1" d="m489.9,127.63c0-14.28,9.34-24.89,24.16-24.89,14.81,0,24.29,10.61,24.29,24.89,0,14.28-9.48,24.82-24.29,24.82s-24.16-10.55-24.16-24.82Zm34.3,0c0-7.81-3.41-13.75-10.08-13.75s-10.07,5.94-10.07,13.75c0,7.81,3.4,13.68,10.07,13.68s10.08-5.87,10.08-13.68Z"/>
      </g>
      <g>
        <path class="cls-1" d="m185.53,167.56h25.01c15.61,0,26.45,10,26.45,27.21,0,17.28-10.31,26.98-27.13,26.98h-24.33s0-54.19,0-54.19Zm23.04,41.07c7.28,0,12.35-4.7,12.35-13.87,0-8.94-4.77-14.09-12.35-14.09h-7.2s0,27.96,0,27.96h7.2Z"/>
        <path class="cls-1" d="m239.29,194.84c0-16.22,10.61-28.27,27.44-28.27,16.82,0,27.58,12.05,27.58,28.27,0,16.22-10.76,28.2-27.58,28.2-16.82,0-27.44-11.98-27.44-28.2Zm38.96,0c0-8.87-3.87-15.61-11.45-15.61s-11.44,6.75-11.44,15.61c0,8.87,3.86,15.54,11.44,15.54s11.45-6.67,11.45-15.54Z"/>
        <path class="cls-1" d="m295.94,204.47h16.22c.53,4.32,3.86,6.36,9.1,6.36,3.1,0,6.89-1.21,6.89-4.47,0-3.26-3.63-4.09-10.31-5.76-9.1-2.28-20.09-5.38-20.09-16.9,0-12.43,10.16-17.13,22.36-17.13,11.22,0,21.52,4.7,21.75,16.53h-15.69c-.46-2.96-2.58-4.85-6.9-4.85-3.49,0-5.91,1.59-5.91,3.79,0,3.18,4.63,3.63,12.74,5.6,9.09,2.2,18.19,5.76,18.19,17.29,0,11.82-10.53,18.11-23.34,18.11-14.1,0-24.78-6.07-25.01-18.57Z"/>
      </g>
      <g>
        <path class="cls-1" d="m186.13,239.08h20.9s0,53.61,0,53.61h30.6s0,17.9,0,17.9h-51.51s0-71.51,0-71.51Z"/>
        <path class="cls-1" d="m243.16,239.08h20.9s0,71.51,0,71.51h-20.9s0-71.51,0-71.51Z"/>
        <path class="cls-1" d="m267.89,239.08h21.5s9.8,33.6,9.8,33.6c1.8,6.11,3.49,13.9,3.49,13.9h.2s1.8-7.79,3.5-13.9l9.6-33.6h21.21s-23.01,71.51-23.01,71.51h-23.4s-22.9-71.51-22.9-71.51Z"/>
        <path class="cls-1" d="m341.03,239.08h35.51c14.6,0,27,6.7,27,21.3,0,8.2-4.2,14-11.7,17.4v.3c5.8,2.2,8.8,6.2,10,11.8,1.9,8.6.3,18.9,2.9,19.6v1.1s-20.6,0-20.6,0c-2-1.4-1.2-10.2-2.7-16.6-1.3-5.5-3.71-8.3-9.8-8.3h-9.7s0,24.9,0,24.9h-20.9s0-71.51,0-71.51Zm20.9,31.7h11.2c6,0,9.31-2.6,9.31-7.6,0-4.71-3-7.7-9.01-7.7h-11.5s0,15.3,0,15.3Z"/>
        <path class="cls-1" d="m407.37,275.08c0-21.4,14.01-37.3,36.21-37.3s36.4,15.9,36.4,37.3c0,21.4-14.2,37.21-36.4,37.21-22.2,0-36.21-15.81-36.21-37.21Zm51.41,0c0-11.7-5.11-20.6-15.11-20.6-10,0-15.1,8.9-15.1,20.6s5.1,20.51,15.1,20.51c10,0,15.11-8.8,15.11-20.51Z"/>
        <path class="cls-1" d="m482.12,287.78h21.4c.7,5.7,5.1,8.4,12,8.4,4.1,0,9.1-1.6,9.1-5.9s-4.8-5.4-13.6-7.6c-12-3-26.51-7.1-26.51-22.3,0-16.4,13.4-22.61,29.5-22.61,14.8,0,28.4,6.21,28.71,21.81h-20.7c-.6-3.9-3.4-6.4-9.1-6.4-4.6,0-7.8,2.09-7.8,5,0,4.19,6.11,4.8,16.81,7.39,12,2.91,24,7.61,24,22.81,0,15.59-13.9,23.9-30.8,23.9-18.61,0-32.7-8-33.01-24.5Z"/>
      </g>
    </g>
    <path class="cls-1" d="m167.17,0h-57.75s0,311.17,0,311.17h57.75V0Zm-7.81,15.57h-42.13v-6.89h42.13v6.89Z"/>
    <path class="cls-1" d="m91.06,0h-57.75s0,311.17,0,311.17h57.75V0Zm-7.81,15.57h-42.13v-6.89h42.13v6.89Z"/>
  </g>
</svg>